<svg viewBox="0 0 60 60" fill="none" xmlns="http://www.w3.org/2000/svg">
<g clip-path="url(#clip0_3_1524)">
<path d="M54.1839 17.6643V12.7894C54.1839 10.1012 51.9997 7.91943 49.3139 7.91943H10.354C7.6682 7.91943 5.48401 10.1012 5.48401 12.7894V17.6643H54.1839ZM20.094 10.3544C21.4381 10.3544 22.529 11.4453 22.529 12.7894C22.529 14.1335 21.4381 15.2244 20.094 15.2244C18.7499 15.2244 17.659 14.1335 17.659 12.7894C17.659 11.4453 18.7499 10.3544 20.094 10.3544ZM12.789 10.3544C14.1331 10.3544 15.224 11.4453 15.224 12.7894C15.224 14.1335 14.1331 15.2244 12.789 15.2244C11.4449 15.2244 10.354 14.1335 10.354 12.7894C10.354 11.4453 11.4449 10.3544 12.789 10.3544Z" fill="currentColor"/>
<path d="M5.4834 20.1V46.88C5.4834 49.5658 7.66759 51.75 10.3534 51.75H49.3133C51.9991 51.75 54.1833 49.5658 54.1833 46.88V20.1H5.4834ZM19.3799 46.1739L15.9368 42.7308L21.5203 37.1474L15.9368 31.5639L19.3799 28.1208L28.4064 37.1474L19.3799 46.1739ZM44.4433 44.4523H32.2683V39.5824H44.4433V44.4523Z" fill="currentColor"/>
</g>
<defs>
<clipPath id="clip0_3_1524">
<rect width="58.4399" height="58.4399" fill="white" transform="translate(0.613525 0.614685)"/>
</clipPath>
</defs>
</svg>
