<svg viewBox="0 0 60 60" fill="none" xmlns="http://www.w3.org/2000/svg">
<g clip-path="url(#clip0_3_2077)">
<path d="M49.365 5.47076H27.4501C24.7618 5.47076 22.5801 7.65252 22.5801 10.3408V29.8207C22.5801 32.5089 24.7618 34.6907 27.4501 34.6907H49.365C52.0532 34.6907 54.235 32.5089 54.235 29.8207V10.3408C54.235 7.65252 52.0532 5.47076 49.365 5.47076ZM27.4501 27.3857L31.9767 20.1221L34.7672 24.6001L41.198 14.283L49.365 27.3857H27.4501Z" fill="currentColor"/>
<path d="M17.7103 12.7758H12.8403V39.5607C12.8403 42.2465 15.0245 44.4307 17.7103 44.4307H42.0603V39.5607H17.7103V12.7758Z" fill="currentColor"/>
<path d="M7.97021 22.5162H3.10022V49.3011C3.10022 51.9869 5.28441 54.1711 7.97021 54.1711H32.3202V49.3011H7.97021V22.5162Z" fill="currentColor"/>
</g>
<defs>
<clipPath id="clip0_3_2077">
<rect width="58.4399" height="58.4399" fill="white" transform="translate(0.665771 0.593445)"/>
</clipPath>
</defs>
</svg>
