<svg viewBox="0 0 59 60" fill="none" xmlns="http://www.w3.org/2000/svg">
<g clip-path="url(#clip0_3_1802)">
<path d="M45.4771 25.2867L36.4384 9.46655L32.2112 11.8821L39.8693 25.2867H19.0403L26.6984 11.8845L22.4712 9.46655L13.4325 25.2867H5.10486V30.1567H8.02198L12.4683 50.165C12.7142 51.2803 13.7028 52.0716 14.8448 52.0716H44.0648C45.2068 52.0716 46.1954 51.2803 46.4413 50.165L50.8876 30.1567H53.8047V25.2867H45.4771ZM22.1498 44.7667H17.2798V32.5917H22.1498V44.7667ZM31.8898 44.7667H27.0198V32.5917H31.8898V44.7667ZM41.6298 44.7667H36.7598V32.5917H41.6298V44.7667Z" fill="currentColor"/>
</g>
<defs>
<clipPath id="clip0_3_1802">
<rect width="58.4399" height="58.4399" fill="white" transform="translate(0.234741 0.933044)"/>
</clipPath>
</defs>
</svg>
