<svg viewBox="0 0 59 60" fill="none" xmlns="http://www.w3.org/2000/svg">
<g clip-path="url(#clip0_3_580)">
<path d="M46.6743 3.00122H12.5858C9.90016 3.00122 7.71606 5.18279 7.71606 7.8708V51.697C7.71606 54.3826 9.90016 56.5666 12.5858 56.5666H39.3697C46.0827 56.5666 51.5441 51.1054 51.5441 44.3927V7.8708C51.5441 5.18279 49.36 3.00122 46.6743 3.00122ZM27.1952 46.8275H22.3254V51.697H17.4556V46.8275H12.5858V41.9579H17.4556V37.0883H22.3254V41.9579H27.1952V46.8275ZM36.9348 49.2622C35.5883 49.2622 34.4999 48.1715 34.4999 46.8275C34.4999 45.481 35.5883 44.3927 36.9348 44.3927C38.2813 44.3927 39.3697 45.481 39.3697 46.8275C39.3697 48.1715 38.2813 49.2622 36.9348 49.2622ZM41.8046 44.3927C40.4581 44.3927 39.3697 43.3019 39.3697 41.9579C39.3697 40.6114 40.4581 39.5231 41.8046 39.5231C43.1511 39.5231 44.2395 40.6114 44.2395 41.9579C44.2395 43.3019 43.1511 44.3927 41.8046 44.3927ZM44.2395 29.7839C44.2395 31.1279 43.1486 32.2187 41.8046 32.2187H17.4556C16.1116 32.2187 15.0207 31.1279 15.0207 29.7839V12.7404C15.0207 11.3964 16.1116 10.3056 17.4556 10.3056H41.8046C43.1486 10.3056 44.2395 11.3964 44.2395 12.7404V29.7839Z" fill="currentColor"/>
</g>
<defs>
<clipPath id="clip0_3_580">
<rect width="58.4399" height="58.4399" fill="white" transform="translate(0.411621 0.566345)"/>
</clipPath>
</defs>
</svg>
