<svg viewBox="0 0 20 20" fill="none"><path fill-rule="evenodd" clip-rule="evenodd" d="M2 0.000976562H7C8.104 0.000976562 9 0.898977 9 2.00098V7.00098C9 8.10298 8.104 9.00098 7 9.00098H2C0.897 9.00098 0 8.10298 0 7.00098V2.00098C0 0.898977 0.897 0.000976562 2 0.000976562ZM13 0.000976562H18C19.104 0.000976562 20 0.898977 20 2.00098V7.00098C20 8.10298 19.104 9.00098 18 9.00098H13C11.896 9.00098 11 8.10298 11 7.00098V2.00098C11 0.898977 11.896 0.000976562 13 0.000976562ZM7 11.001H2C0.897 11.001 0 11.899 0 13.001V18.001C0 19.104 0.897 20.001 2 20.001H7C8.104 20.001 9 19.104 9 18.001V13.001C9 11.899 8.104 11.001 7 11.001ZM13 11.001H18C19.104 11.001 20 11.899 20 13.001V18.001C20 19.104 19.104 20.001 18 20.001H13C11.896 20.001 11 19.104 11 18.001V13.001C11 11.899 11.896 11.001 13 11.001Z" fill="currentColor"></path></svg>