<svg viewBox="0 0 60 59" fill="none" xmlns="http://www.w3.org/2000/svg">
<g clip-path="url(#clip0_3_1458)">
<path d="M53.4799 32.8495L49.3234 28.6932V17.5243H42.0184V21.3861L31.565 10.9355C30.6129 9.98346 29.074 9.98346 28.1219 10.9355L6.20696 32.8495C5.51055 33.5459 5.30114 34.5929 5.67856 35.5036C6.05355 36.4142 6.94476 37.0059 7.9285 37.0059H10.3635V54.0501H17.6685V41.8757H24.9735V54.0501H49.3234V37.0059H51.7584C52.7421 37.0059 53.6333 36.4142 54.0083 35.5036C54.3857 34.5905 54.1763 33.5459 53.4799 32.8495ZM44.4534 44.3081H32.2784V37.0035H44.4534V44.3081Z" fill="currentColor"/>
</g>
<defs>
<clipPath id="clip0_3_1458">
<rect width="58.4399" height="58.4399" fill="white" transform="translate(0.613525 0.478271)"/>
</clipPath>
</defs>
</svg>
