<svg viewBox="0 0 118 117" fill="none" xmlns="http://www.w3.org/2000/svg">
<g clip-path="url(#clip0_3_5661)">
<path d="M99.5128 21.4895C92.0932 18.0851 84.1367 15.5768 75.8177 14.1402C75.6663 14.1125 75.5148 14.1818 75.4368 14.3204C74.4136 16.1404 73.2802 18.5147 72.4864 20.3809C63.5388 19.0413 54.6371 19.0413 45.873 20.3809C45.0792 18.4731 43.9045 16.1404 42.8767 14.3204C42.7987 14.1864 42.6473 14.1171 42.4958 14.1402C34.1814 15.5722 26.225 18.0805 18.8007 21.4895C18.7365 21.5172 18.6814 21.5634 18.6447 21.6235C3.55308 44.1702 -0.581175 66.1626 1.44695 87.8825C1.45613 87.9888 1.51578 88.0904 1.59837 88.1551C11.5555 95.4674 21.2005 99.9065 30.6666 102.849C30.8181 102.895 30.9787 102.84 31.075 102.715C33.3142 99.6571 35.3102 96.4328 37.0217 93.0423C37.1227 92.8436 37.0263 92.6081 36.8198 92.5295C33.6538 91.3285 30.6391 89.8642 27.7392 88.2012C27.5097 88.0673 27.4914 87.7393 27.7025 87.5823C28.3127 87.125 28.923 86.6492 29.5057 86.1688C29.6113 86.081 29.7581 86.0625 29.882 86.118C48.9335 94.8161 69.5589 94.8161 88.3856 86.118C88.5095 86.0579 88.6564 86.0764 88.7665 86.1641C89.3492 86.6445 89.9595 87.125 90.5743 87.5823C90.7854 87.7393 90.7717 88.0673 90.5422 88.2012C87.6423 89.8965 84.6276 91.3285 81.457 92.5249C81.2505 92.6034 81.1587 92.8436 81.2597 93.0423C83.0079 96.4282 85.0039 99.6525 87.2018 102.71C87.2936 102.84 87.4587 102.895 87.6102 102.849C97.1222 99.9065 106.767 95.4674 116.724 88.1551C116.812 88.0904 116.867 87.9934 116.876 87.8871C119.303 62.7767 112.81 40.9644 99.6642 21.6281C99.6321 21.5634 99.577 21.5172 99.5128 21.4895ZM39.8666 74.6575C34.131 74.6575 29.4048 69.3915 29.4048 62.9245C29.4048 56.4575 34.0392 51.1915 39.8666 51.1915C45.7399 51.1915 50.4202 56.5037 50.3285 62.9245C50.3285 69.3915 45.694 74.6575 39.8666 74.6575ZM78.5478 74.6575C72.8122 74.6575 68.086 69.3915 68.086 62.9245C68.086 56.4575 72.7204 51.1915 78.5478 51.1915C84.4212 51.1915 89.1014 56.5037 89.0097 62.9245C89.0097 69.3915 84.4212 74.6575 78.5478 74.6575Z" fill="currentColor"/>
</g>
<defs>
<clipPath id="clip0_3_5661">
<rect width="116.411" height="116.411" fill="white" transform="translate(0.965851 0.342529)"/>
</clipPath>
</defs>
</svg>
