<svg viewBox="0 0 60 61" fill="none" xmlns="http://www.w3.org/2000/svg">
<g clip-path="url(#clip0_3_2294)">
<path d="M49.3132 55.306C50.658 55.306 51.7482 54.199 51.7482 52.8335C51.7482 51.468 50.658 50.3611 49.3132 50.3611C47.9684 50.3611 46.8782 51.468 46.8782 52.8335C46.8782 54.199 47.9684 55.306 49.3132 55.306Z" fill="currentColor"/>
<path d="M10.3535 55.306C11.6983 55.306 12.7884 54.199 12.7884 52.8335C12.7884 51.468 11.6983 50.3611 10.3535 50.3611C9.00864 50.3611 7.91846 51.468 7.91846 52.8335C7.91846 54.199 9.00864 55.306 10.3535 55.306Z" fill="currentColor"/>
<path d="M5.4834 25.6365V35.5264C5.4834 38.2535 7.66759 40.4713 10.3534 40.4713H27.3983V50.3611H15.2234V55.306H44.4433V50.3611H32.2683V40.4713H49.3133C51.9991 40.4713 54.1833 38.2535 54.1833 35.5264V25.6365H5.4834ZM24.9634 35.5264H12.7884V30.5814H24.9634V35.5264ZM37.1383 35.5264C35.7942 35.5264 34.7033 34.4212 34.7033 33.0539C34.7033 31.6891 35.7942 30.5814 37.1383 30.5814C38.4824 30.5814 39.5733 31.6891 39.5733 33.0539C39.5733 34.4212 38.4824 35.5264 37.1383 35.5264ZM44.4433 35.5264C43.0992 35.5264 42.0083 34.4212 42.0083 33.0539C42.0083 31.6891 43.0992 30.5814 44.4433 30.5814C45.7874 30.5814 46.8783 31.6891 46.8783 33.0539C46.8783 34.4212 45.7874 35.5264 44.4433 35.5264Z" fill="currentColor"/>
<path d="M54.1839 20.6918V10.802C54.1839 8.07491 51.9997 5.85712 49.3139 5.85712H10.354C7.6682 5.85712 5.48401 8.07491 5.48401 10.802V20.6918H54.1839ZM44.4439 10.802C45.788 10.802 46.8789 11.9097 46.8789 13.2745C46.8789 14.6418 45.788 15.7469 44.4439 15.7469C43.0998 15.7469 42.0089 14.6418 42.0089 13.2745C42.0089 11.9097 43.0998 10.802 44.4439 10.802ZM37.1389 10.802C38.483 10.802 39.5739 11.9097 39.5739 13.2745C39.5739 14.6418 38.483 15.7469 37.1389 15.7469C35.7948 15.7469 34.7039 14.6418 34.7039 13.2745C34.7039 11.9097 35.7948 10.802 37.1389 10.802ZM12.789 10.802H24.964V15.7469H12.789V10.802Z" fill="currentColor"/>
</g>
<defs>
<clipPath id="clip0_3_2294">
<rect width="58.4399" height="59.3389" fill="white" transform="translate(0.613525 0.911682)"/>
</clipPath>
</defs>
</svg>
