<svg viewBox="0 0 24 24" fill="none" xmlns="http://www.w3.org/2000/svg">
<path d="M14 8.00586C14 10.2109 12.206 12.0059 10 12.0059C7.795 12.0059 6 10.2109 6 8.00586C6 5.80086 7.794 4.00586 10 4.00586C12.206 4.00586 14 5.80086 14 8.00586ZM2 19.0059C2 15.4729 5.29 13.0059 10 13.0059C14.711 13.0059 18 15.4729 18 19.0059V20.0059H2V19.0059Z" fill="currentColor"/>
<path d="M14 8.00586C14 10.2109 12.206 12.0059 10 12.0059C7.795 12.0059 6 10.2109 6 8.00586C6 5.80086 7.794 4.00586 10 4.00586C12.206 4.00586 14 5.80086 14 8.00586ZM2 19.0059C2 15.4729 5.29 13.0059 10 13.0059C14.711 13.0059 18 15.4729 18 19.0059V20.0059H2V19.0059Z" fill="currentColor"/>
<path d="M20 20.006H22V19.006C22 16.4433 20.2696 14.4415 17.5212 13.5352C19.062 14.9127 20 16.8059 20 19.006V20.006Z" fill="currentColor"/>
<path d="M14.8834 11.9076C16.6657 11.5043 18.0001 9.90762 18.0001 8.0059C18.0001 5.96908 16.4693 4.2821 14.4971 4.03662C15.4322 5.09503 16.0001 6.48516 16.0001 8.0059C16.0001 9.4488 15.4889 10.7741 14.6378 11.8101C14.7203 11.8417 14.8022 11.8742 14.8834 11.9076Z" fill="currentColor"/>
</svg>
